<?xml version="1.0" encoding="UTF-8"?>
<svg xmlns="http://www.w3.org/2000/svg" viewBox="0 0 174.43 176.18" role="img" aria-label="Behavioural Research UK">
  <path fill="#ffffff" d="M87.22,41.01h-1.09s0,.03,0,.03c-25.57.62-46.2,21.63-46.2,47.34s20.63,46.72,46.2,47.34v.03h1.09c26.07-.05,47.29-21.3,47.29-47.37s-21.21-47.32-47.29-47.37M86.13,133.55c-24.37-.62-44.03-20.65-44.03-45.17s19.65-44.54,44.03-45.16v10.12c-8.63.25-17.18,3.65-23.75,10.2l.77.77-.77-.77c-13.65,13.7-13.63,35.97.04,49.64,6.56,6.56,15.09,9.97,23.71,10.24v10.12ZM111.41,110.74l-17.02-17.02c-1.56,1.99-3.98,3.36-7.28,3.36-2.68,0-4.78-.89-6.31-2.29l-6.8,6.8c-7.27-7.3-7.27-19.11.02-26.4l-10.11-10.12c12.85-12.8,33.74-12.79,46.57.04,12.52,12.52,12.83,32.72.94,45.62"/>
  <path fill="#ffffff" opacity="0.88" d="M101.2,74.4l-.77.77h0s-.24.24-.24.24l-.53.53-24.89,24.89h0s-1.54,1.54-1.54,1.54c3.85,3.84,8.9,5.76,13.96,5.76s10.13-1.93,13.98-5.78c7.7-7.7,7.71-20.23.02-27.94"/>
  <path fill="#ffffff" opacity="0.88" d="M73.23,102.36c-7.68-7.71-7.67-20.24.02-27.94,7.7-7.7,20.23-7.71,27.94-.03l-1.53,1.54c-6.86-6.84-18.02-6.83-24.87.02-6.85,6.85-6.86,18.01-.02,24.87l-1.54,1.54Z"/>
</svg>
